# xmcd CD database file
#
# Track frame offsets:
#	182
#	47730
#	75810
#	109180
#	174165
#	211022
#	247147
#	268255
#	275427
#
# Disc length: 4220 seconds
#
# Revision: 0
# Processed by: cddbd v1.5.1PL0 Copyright (c) Steve Scherf et al.
# Submitted via: CDex 1.51
#
DISCID=73107a09
DTITLE=Trio Machado - kah pob wah
DYEAR=1998
DGENRE=Jazz
TTITLE0=opening my favorite way
TTITLE1=kah pob wah
TTITLE2=hecate
TTITLE3=suite no 1
TTITLE4=send more money
TTITLE5=the a la monk
TTITLE6=just let me stop the school
TTITLE7=cielo que vuelves la tierra azul
TTITLE8=something looks strange
EXTD=YEAR: 1998
EXTT0=
EXTT1=
EXTT2=
EXTT3=
EXTT4=
EXTT5=
EXTT6=
EXTT7=
EXTT8=
PLAYORDER=
